PathFileType	4	(X/Y/Z)	D:\TRACE\spot_10-12-23\spot_arm_body_motion_1_10-v60.trc
DataRate	CameraRate	NumFrames	NumMarkers	Units	OrigDataRate	OrigDataStartFrame	OrigNumFrames
100.00	100.00	      17	9	mm	100.00	6126	      7000
Frame#	Time	front left toe			Front right toe			aft left toe			aft right toe			Arm			FL body			FR body			AL Body			AR Body			
		X1	Y1	Z1	X2	Y2	Z2	X3	Y3	Z3	X4	Y4	Z4	X5	Y5	Z5	X6	Y6	Z6	X7	Y7	Z7	X8	Y8	Z8	X9	Y9	Z9	

6126	61.250	-127.32802	23.38757	-412.89893	279.22769	28.63786	-447.34653	-28.54524	16.88190	185.78709	389.86798	23.56772	149.94244	44.22681	752.04138	-752.13171	-28.06808	595.63721	-471.38098	124.34134	599.48846	-495.17361	102.92339	558.75623	400.09540	242.90411	557.30011	381.68338	
6127	61.260	-127.21599	23.67266	-412.74713	279.59033	29.19577	-447.19574	-29.31401	16.77459	185.83557	390.05920	23.42516	150.03419	45.04976	752.11511	-752.55701	-30.19475	596.46021	-471.31168	121.81372	599.96252	-494.85156	101.21941	559.42645	400.20160	241.10822	557.68549	381.71628	
6128	61.270	-126.96155	23.84268	-412.74454	279.76404	29.56909	-447.10336	-27.98310	16.47745	185.90440	390.33148	23.57146	150.01363	45.64046	752.42377	-752.76678	-31.99341	597.04272	-471.33795	120.18267	600.51239	-494.91983	99.23711	559.93915	400.15149	239.25629	558.08051	381.56287	
6129	61.280	-126.63201	24.04541	-412.63879	280.18744	30.02116	-446.87079	-27.59878	16.30440	186.01637	390.82132	23.73634	150.16103	45.76120	752.70392	-752.76215	-33.50525	597.74646	-471.63550	119.00973	601.15582	-495.32275	97.52409	560.58203	400.04398	237.50291	558.36438	381.59814	
6130	61.290	-126.21146	24.15755	-412.59222	280.33148	30.34242	-446.88104	-27.35805	15.97708	186.13602	391.91077	24.16899	150.44424	45.51173	753.05188	-752.79144	-34.61406	598.23828	-471.75967	117.44285	601.59430	-494.94580	96.22154	560.71509	399.82074	235.81131	558.63605	381.59006	
6131	61.300	-125.65639	24.18163	-412.58527	281.38217	30.95288	-446.47269	-26.51707	14.93298	186.39931	392.20337	24.22054	150.55479	45.18036	753.44373	-752.84216	-35.56404	598.85327	-472.06308	117.04619	602.16754	-495.57083	94.06363	560.91919	399.71207	233.72845	558.96765	381.47122	
6132	61.310	-125.17608	24.35066	-412.52298	282.15656	31.37141	-446.25107	-26.78673	15.19568	186.31587	392.47784	24.29841	150.75288	44.42805	753.91125	-752.80402	-36.40751	599.41437	-472.22983	115.81217	602.69330	-495.29810	92.47073	561.27283	399.60825	232.53714	559.28442	381.41165	
6133	61.320	-124.79365	24.55341	-412.60724	283.31198	31.94975	-445.82538	-26.42998	14.97106	186.33487	392.85150	24.34721	150.71919	43.62762	754.33826	-752.66052	-36.94911	599.94189	-472.50516	115.15466	603.38452	-495.53903	91.51413	561.61041	399.53046	231.47534	559.45422	380.97687	
6134	61.330	-124.40296	24.91170	-412.66602	283.60428	32.23850	-445.81519	-25.94350	14.96086	186.23509	393.12979	24.47235	150.65338	42.65007	754.65234	-752.57385	-37.67734	600.55621	-472.86942	114.88997	604.05170	-496.10858	90.21141	561.76813	399.13141	230.15187	559.79126	380.85995	
6135	61.340	-123.95612	25.13460	-412.54910	283.91434	32.46035	-445.78577	-25.40753	14.84287	186.22250	393.55997	24.52853	150.59639	41.85933	754.88641	-752.41003	-38.17535	600.96106	-473.32706	113.98888	604.47076	-495.97037	89.35227	561.96252	398.97473	229.60880	559.94135	380.82446	
6136	61.350	-123.29018	25.11507	-412.50339	283.44153	32.32530	-446.34464	-24.83458	14.58832	186.19392	394.09424	24.47319	150.56999	41.46861	755.07141	-752.31293	-38.65109	601.28070	-473.51151	113.32394	605.09705	-496.25287	88.77957	562.28271	398.68344	228.88272	560.52679	380.62305	
6137	61.360	-122.92687	25.33116	-412.42630	283.48489	32.48421	-446.62717	-24.49336	14.66682	186.21651	394.67422	24.43860	150.58403	41.20048	755.26318	-752.27161	-39.20607	601.61938	-473.72861	112.99616	605.60779	-496.41162	88.44543	562.50598	398.38602	228.35260	560.85181	380.31320	
6138	61.370	-122.56783	25.42432	-412.37259	283.47028	32.49625	-446.95111	-23.95603	14.65549	186.25459	394.47223	23.75099	150.58542	41.01226	755.49860	-752.13165	-39.60376	602.05396	-474.00253	112.53520	606.09802	-496.67831	88.25409	562.63977	398.01648	228.15137	561.16925	379.96860	
6139	61.380	-121.95210	25.61094	-412.18274	284.40933	32.96078	-446.79965	-23.15039	14.57993	186.32002	395.00018	23.72597	150.49719	41.13068	755.69324	-752.08264	-40.07727	602.49896	-474.24506	112.02636	606.62506	-497.06396	88.20501	562.72253	397.65543	228.14531	561.49170	379.73895	
6140	61.390	-121.44673	25.70992	-412.07138	285.45511	33.53444	-446.50128	-22.52015	14.52727	186.33459	395.63245	23.57794	150.47955	41.28006	755.82495	-752.14044	-40.45608	602.83081	-474.52673	111.61277	607.14014	-497.43909	88.19704	562.84229	397.25476	228.10953	561.59027	379.17966	
6141	61.400	-121.00644	25.83777	-411.99875	286.31522	34.08596	-446.22455	-21.83405	14.25912	186.48763	396.29730	23.50188	150.51054	41.72400	755.81531	-752.09064	-40.60468	603.03229	-474.77448	111.42031	607.45740	-497.72586	88.24162	562.94934	397.03427	228.05499	561.93671	378.90561	
6142	61.410	-120.42208	25.97744	-411.94946	286.79300	34.34873	-446.03506	-21.42896	14.13287	186.49908	396.88635	23.29251	150.61861	42.36165	755.88690	-752.09088	-40.62401	603.35168	-475.11697	111.81540	607.80011	-498.53241	88.38190	563.05615	396.77908	228.29051	562.01660	378.04324	
